<svg id="Capa_1" enable-background="new 0 0 512 512" height="512" viewBox="0 0 512 512" width="512" xmlns="http://www.w3.org/2000/svg"><g id="XMLID_4271_"><path id="XMLID_192_" d="m423.09 249.079c-18.96-26.421-42.665-44.459-74.6-56.767l-2.624-1.011h-141.89v119.104l92.993 92.994h128.957v-150.369z" fill="#4b5be4"/><path id="XMLID_190_" d="m286.664 16.233c-22.406 0-44.025 6.611-62.521 19.118l-6.649 4.496v152.114l39.546 43.867 4.662 1.064c8.144 1.859 16.542 2.802 24.962 2.802 61.609 0 111.731-50.122 111.731-111.731s-50.123-111.73-111.731-111.73z" fill="#8095ff"/><path id="XMLID_3742_" d="m286.664 16.233v223.462c61.609 0 111.731-50.122 111.731-111.731s-50.123-111.731-111.731-111.731z" fill="#8066ff"/><path id="XMLID_3556_" d="m327.73 275.265-.385-.78c-19.106-38.749-49.551-66.395-90.487-82.173l-2.624-1.011-118.411.001-2.624 1.012c-68.766 26.505-113.199 96.373-113.199 177.996v125.458h385.073z" fill="#00ee84"/><path id="XMLID_201_" d="m175.03 495.767h210.043l-57.343-220.502-.385-.78c-19.106-38.749-49.551-66.395-90.487-82.173l-2.624-1.011h-59.203v304.466z" fill="#00cc71"/><ellipse id="XMLID_4005_" cx="175.03" cy="127.963" fill="#68ffb1" rx="111.731" ry="111.731" transform="matrix(.973 -.23 .23 .973 -24.718 43.637)"/><path id="XMLID_48_" d="m385.387 242.541c-69.815 0-126.613 56.798-126.613 126.613s56.798 126.613 126.613 126.613 116.613-56.798 116.613-126.613-46.798-126.613-116.613-126.613z" fill="#e6f3fb"/><path id="XMLID_4181_" d="m385.387 242.541v253.227c69.815 0 126.613-56.798 126.613-126.613s-56.798-126.614-126.613-126.614z" fill="#d1e9ff"/><path id="XMLID_261_" d="m442.55 354.154h-42.163v-42.163h-30v42.163h-42.164v30h42.164v42.164h30v-42.164h42.163z" fill="#8095ff"/><path id="XMLID_202_" d="m175.03 16.233v223.462c61.609 0 111.731-50.122 111.731-111.731s-50.122-111.731-111.731-111.731z" fill="#00ee84"/><path id="XMLID_4183_" d="m400.387 354.154v-42.163h-15v114.327h15v-42.164h42.163v-30z" fill="#8066ff"/></g></svg>