<svg id="Capa_1" enable-background="new 0 0 512 512" height="512" viewBox="0 0 512 512" width="512" xmlns="http://www.w3.org/2000/svg"><path d="m462.527 212.656h-413.054c-8.284 0-15 6.716-15 15v261.815c0 8.284 6.716 15 15 15h413.055c8.284 0 15-6.716 15-15v-261.815c-.001-8.284-6.716-15-15.001-15z" fill="#f2f4f7"/><g fill="#c7e7ff"><path d="m462.527 212.656h-206.527v291.815h206.527c8.284 0 15-6.716 15-15v-261.815c0-8.284-6.715-15-15-15z"/><path d="m413.786 92.894c-8.284 0-15 6.716-15 15v55.846c0 8.284 6.716 15 15 15s15-6.716 15-15v-55.846c0-8.285-6.716-15-15-15z"/><path d="m146.683 107.469c-8.284 0-15 6.716-15 15v41.271c0 8.284 6.716 15 15 15s15-6.716 15-15v-41.271c0-8.284-6.716-15-15-15z"/></g><path d="m219.304 7.529h-145.242c-8.284 0-15 6.716-15 15v94.334c0 8.284 6.716 15 15 15h145.242c8.284 0 15-6.716 15-15v-94.334c0-8.284-6.716-15-15-15z" fill="#505459"/><path d="m219.304 7.529h-72.621v124.334h72.621c8.284 0 15-6.716 15-15v-94.334c0-8.284-6.716-15-15-15z" fill="#34373b"/><path d="m462.542 148.74h-413.084c-27.271 0-49.458 22.187-49.458 49.458s22.187 49.458 49.458 49.458h413.084c27.271 0 49.458-22.187 49.458-49.458s-22.187-49.458-49.458-49.458z" fill="#ffa34c"/><path d="m462.542 148.74h-206.542v98.917h206.542c27.271 0 49.458-22.187 49.458-49.458 0-27.272-22.187-49.459-49.458-49.459z" fill="#f08546"/><path d="m292.696 343.563h-21.696v-21.696c0-8.284-6.716-15-15-15s-15 6.716-15 15v21.696h-21.696c-8.284 0-15 6.716-15 15s6.716 15 15 15h21.696v21.695c0 8.284 6.716 15 15 15s15-6.716 15-15v-21.695h21.696c8.284 0 15-6.716 15-15s-6.716-15-15-15z" fill="#ff5b6e"/><path d="m271 395.259v-21.695h21.696c8.284 0 15-6.716 15-15s-6.716-15-15-15h-21.696v-21.696c0-8.284-6.716-15-15-15v103.392c8.284-.001 15-6.717 15-15.001z" fill="#db2e43"/></svg>