<svg id="Layer_1" enable-background="new 0 0 512 512" height="512" viewBox="0 0 512 512" width="512" xmlns="http://www.w3.org/2000/svg"><path d="m15 497h400.6v-275.89c0-6.067-3.654-11.537-9.26-13.858-5.602-2.32-12.057-1.038-16.347 3.252l-117.927 117.927-117.926-117.927c-2.813-2.813-6.628-4.394-10.606-4.394s-7.793 1.581-10.606 4.394l-117.928 117.927z" fill="#e1e6f5"/><path d="m415.6 497v-275.89c0-6.067-3.654-11.537-9.26-13.858-5.602-2.32-12.057-1.038-16.347 3.252l-117.927 117.927-117.926-117.927c-2.813-2.813-6.628-4.394-10.606-4.394v290.89z" fill="#faf0fa"/><path d="m406.34 207.252c-5.602-2.32-12.057-1.038-16.347 3.252l-117.927 117.927v168.569h143.534v-275.89c0-6.067-3.655-11.536-9.26-13.858z" fill="#c3dcf5"/><path d="m15 364.645c3.903-.001 7.738-1.525 10.606-4.394l117.927-117.926 117.927 117.926c5.857 5.858 15.355 5.858 21.213 0l168.883-168.881 34.838 34.837c4.29 4.292 10.745 5.573 16.347 3.252 5.605-2.322 9.26-7.792 9.26-13.858v-136.334c0-8.284-6.716-15-15-15h-136.335c-6.067 0-11.536 3.655-13.858 9.26-2.321 5.605-1.038 12.057 3.252 16.347l34.839 34.837-112.833 112.831-117.926-117.926c-5.857-5.858-15.355-5.858-21.213 0l-117.927 117.926z" fill="#82ff5a"/><path d="m497 512h-482c-8.284 0-15-6.716-15-15v-482c0-8.284 6.716-15 15-15s15 6.716 15 15v467h467c8.284 0 15 6.716 15 15s-6.716 15-15 15z" fill="#004173"/><path d="m497 64.267h-136.334c-6.067 0-11.536 3.655-13.858 9.26-2.321 5.605-1.038 12.057 3.252 16.347l34.839 34.837-112.833 112.831v127.103c3.839 0 7.678-1.465 10.606-4.394l168.884-168.881 34.838 34.837c4.29 4.292 10.745 5.573 16.347 3.252 5.605-2.322 9.26-7.792 9.26-13.858v-136.334c-.001-8.285-6.717-15-15.001-15z" fill="#06e664"/><path d="m497 482h-224.934v30h224.934c8.284 0 15-6.716 15-15s-6.716-15-15-15z" fill="#001e32"/></svg>